<svg id="Layer_1" data-name="Layer 1" xmlns="http://www.w3.org/2000/svg" viewBox="0 0 374.81 374.81"><defs><style>.cls-1{fill:#ffdf00;}</style></defs><title>logoJ</title><path class="cls-1" d="M187.41,0h0C83.9,0,0,83.9,0,187.4H0c0,103.5,83.9,187.4,187.4,187.4h0c103.5,0,187.4-83.9,187.4-187.4h0C374.81,83.9,290.91,0,187.41,0ZM126.77,287.43a33.14,33.14,0,1,1,33.13-33.14A33.14,33.14,0,0,1,126.77,287.43ZM220,272.72c-11.38,9.48-26.37,13.34-42.88,14.71V123.21c-.25-17.19,9-34.46,20-44.65,11.81-10.9,27.69-16.59,45.81-19.43V229.07C243.42,245.75,233.08,261.82,220,272.72Z"/></svg>